<svg xmlns="http://www.w3.org/2000/svg" viewBox="0 0 1200 800" background-color="#1a1a3b">
    <defs>
        <filter id="a">
            <feFlood/>
        </filter>
    </defs>
    <g fill="#2c2c54" stroke="#d1bfff" stroke-width="2">
        <path d="M250 250h200l100 50V400H350l-100-50Z"/>
        <path d="M450 250l200 115v100h-100l-100-55V350l100-50Z"/>
        <path d="M450 350h300l-50 25v125l-300 175v-150l50-25Z"/>
        <path d="M750 475l150 85v-85l-50-25Z"/>
        <path d="M700 600l150 85v-100l-150-85Z"/>
        <path d="M350 400v-50l100-50h300l-50 25v125l-300 175v-100Z" fill="#0d0d2b"/>
        <path d="M350 450V400l100-50h300l-50 25v125l-100 56V300l-150 86Z" fill="#1a3b37"/>
        <path d="M250 250v150l100 50V450l-100-50Z" fill="#0d0d2b"/>
        <path d="M750 475l200 115v100h-200Z"/>
        <path d="M950 590l100 50V540l-100-50Z"/>
        <path d="M750 475v115L350 765V615l400-175Z"/>
        <path d="M750 590l200 115v100h-200Z"/>
        <path d="M950 705l100 50V650l-100-50Z"/>
        <path d="M750 590v115L350 880V735l400-175Z"/>
    </g>
    <g fill="#d1bfff" style="font:bold 24px 'Noto Sans JP', sans-serif">
        <text x="330" y="315" transform="rotate(-30)">体育館</text>
        <text x="580" y="425" transform="rotate(-30)">講堂</text>
        <text x="550" y="550" transform="rotate(-30)">1F・クラス</text>
        <text x="680" y="525" transform="rotate(-30)">2F・クラス</text>
        <text x="800" y="600" transform="rotate(-30)">3F・クラス</text>
        <text x="380" y="525" transform="rotate(-30)">部活・委員会</text>
        <text x="800" y="700" transform="rotate(-30)">その他</text>
    </g>
</svg>
